<svg width="160" height="37" viewBox="0 0 160 37" fill="none" xmlns="http://www.w3.org/2000/svg">
<path d="M103.663 14.4855C103.856 12.6117 103.724 12.4463 103.843 11.2286C103.962 10.0108 104.626 8.87648 106.073 8.74089C107.519 8.6053 108.87 9.82309 109.139 10.7253C109.407 11.6274 109.018 11.4603 109.405 11.5365C109.792 11.6127 109.219 11.952 109.997 10.8558C110.774 9.75953 113.29 8.23021 115.705 8.48329C118.119 8.73636 120.169 10.3533 120.669 12.572C121.169 14.7906 121.211 16.3893 121.293 18.4282C121.375 20.467 121.286 22.529 121.22 24.794C121.153 27.0589 118.756 28.3604 117.054 27.6762C115.351 26.992 115.309 26.7712 115.286 24.8692C115.263 22.9673 115.252 18.9185 115.221 17.3145C115.191 15.7105 115.144 16.0475 114.927 15.2528C114.709 14.458 113.987 13.759 113.048 13.6542C112.11 13.5494 111.277 13.7222 110.832 14.5693C110.386 15.4165 109.99 15.8488 109.876 17.4423C109.763 19.0358 109.782 22.7679 109.765 24.0877C109.747 25.4075 109.858 24.3183 109.675 25.356C109.493 26.3938 108.467 27.8188 106.974 27.9219C105.482 28.025 104.19 26.597 103.909 25.7458C103.629 24.8946 104.503 24.8159 103.702 25.1024C102.901 25.3889 101.763 26.3846 99.7051 27.2554C97.6471 28.1261 93.9622 28.4187 91.2657 27.6051C88.5691 26.7915 86.9949 25.7612 85.9104 22.5689C84.8259 19.3765 85.0094 14.74 87.1727 11.7284C89.3359 8.71689 92.8965 8.31622 95.1137 8.51243C97.3309 8.70865 97.2328 8.69947 98.9003 9.57154C100.568 10.4436 101.832 12.8189 101.636 15.1743C101.44 17.5297 99.5561 19.1726 98.0313 19.7583C96.5065 20.344 95.5928 20.2484 94.8516 20.3612C94.1104 20.4739 94.1249 20.3432 93.5819 20.3737C93.0388 20.4041 92.0589 20.3254 91.8513 21.1147C91.6437 21.9039 91.5541 22.3758 93.3595 22.7887C95.1649 23.2017 98.4657 22.7478 100.454 21.0059C102.442 19.264 103.471 16.3593 103.663 14.4855ZM94.0096 16.2829C94.4352 16.2416 94.8324 16.1866 95.1853 15.9174C95.5381 15.6482 95.95 15.0601 95.9907 14.6542C96.0313 14.2482 95.875 13.9111 95.2955 13.5257C94.716 13.1404 92.7411 13.4185 92.2797 13.9934C91.8183 14.5684 91.741 15.0715 91.83 15.45C91.9189 15.8285 92.5634 16.1117 92.9197 16.1918C93.2759 16.2718 93.584 16.3242 94.0096 16.2829Z" fill="#5B4FF0"/>
<path d="M57.8248 20.3663C56.9516 20.3679 56.1593 20.3138 55.38 20.3911C55.0078 20.4281 54.4405 20.6435 54.356 20.9059C54.2454 21.2495 54.3944 21.9137 54.6632 22.0955C55.2616 22.5002 55.9861 22.8681 56.6905 22.9393C60.545 23.3289 63.7613 21.2373 65.3302 17.3863C65.6374 16.6324 65.9101 15.841 66.0377 15.0411C66.6669 11.0962 69.4776 9.02355 73.0934 8.58922C74.3981 8.43251 75.7411 8.53187 77.0624 8.59894C78.2863 8.66106 78.7846 8.40823 79.2019 7.26164C79.3465 6.8646 79.4367 6.44799 79.5724 6.04735C80.444 3.47388 83.7786 2.72904 85.6244 4.6925C87.3921 6.57285 86.4959 9.80138 84.0117 10.4825C83.4357 10.6404 82.8495 10.7607 82.1161 10.9343C82.352 11.3428 82.5089 11.6522 82.6996 11.939C85.2345 15.7516 83.4863 20.6201 79.0642 21.7898C77.6269 22.17 76.0888 22.1757 74.5938 22.3229C74.0848 22.3731 73.5386 22.2318 73.0625 22.3668C72.7263 22.4622 72.4798 22.8756 72.1932 23.147C72.4826 23.3979 72.7488 23.8231 73.066 23.8656C73.869 23.9734 74.696 23.8836 75.5114 23.9193C77.4988 24.0063 79.5152 23.9385 81.4646 24.2653C84.298 24.7404 85.8113 26.4314 86.1271 28.9754C86.4894 31.8954 85.2748 34.4755 82.756 35.623C81.4589 36.214 80.0189 36.6366 78.6056 36.7943C75.16 37.1788 71.71 37.119 68.4232 35.7855C67.0079 35.2112 65.7516 34.4194 65.7053 32.6255C65.6489 30.4403 67.2961 29.1063 69.7473 29.894C69.9457 29.9577 70.1511 30.056 70.3054 30.1925C72.8285 32.4249 75.8238 31.9372 78.7683 31.6472C79.4912 31.5759 80.1696 31.1915 80.0978 30.3144C80.0301 29.4875 79.3245 29.2578 78.6353 29.2322C76.7016 29.1606 74.7657 29.1491 72.8307 29.1083C72.3169 29.0975 71.7962 29.1142 71.291 29.0368C68.3414 28.5848 67.3026 27.5704 66.6063 24.4958C60.697 29.0707 54.8232 29.9419 48.8174 24.3408C48.6091 24.5073 48.2607 24.7747 47.9243 25.0564C44.4099 27.9984 40.3918 28.8443 36.031 27.6546C32.3339 26.646 30.4293 23.9459 29.8641 20.234C29.7284 19.3425 29.6904 18.436 29.6032 17.4913C28.9207 17.5397 28.2692 17.6322 27.6192 17.6227C26.0875 17.6004 25.2116 16.7933 25.0094 15.2762C24.9139 14.5599 24.7905 13.8588 23.9162 13.705C23.0569 13.5537 22.4486 13.9836 22.0201 14.6668C21.2458 15.9011 21.1658 17.3069 21.1463 18.7081C21.1181 20.742 21.1876 22.7787 21.1087 24.81C21.0202 27.0909 19.5172 28.2518 17.341 27.8249C16.346 27.6298 15.604 27.1 15.358 26.0676C15.2118 25.4537 15.0764 24.8188 15.072 24.1924C15.0451 20.3973 15.0504 16.6018 15.0631 12.8066C15.0652 12.1726 15.1035 11.5296 15.2157 10.9071C15.4783 9.45033 16.2874 8.76103 17.763 8.67181C18.8905 8.60362 20.2239 9.29827 20.4556 10.6253C20.5 10.8801 20.6362 11.1188 20.8289 11.624C22.1181 9.41564 23.8796 8.32349 26.2699 8.42047C28.6843 8.51843 30.3866 9.63719 31.1815 12.0076C32.0345 11.267 32.7264 10.4829 33.5776 9.95946C36.9606 7.87932 40.4655 7.79372 43.8631 9.84036C45.6742 10.9313 46.213 12.8167 46.1312 14.8937C46.0461 17.0562 44.9502 18.5437 43.1127 19.5262C41.6898 20.287 40.1396 20.4834 38.5438 20.3965C38.1523 20.3752 37.7371 20.3131 37.3725 20.4142C37.0319 20.5087 36.5513 20.7439 36.4816 21.0094C36.3941 21.3431 36.5432 21.9301 36.8017 22.1239C37.3122 22.5067 37.9483 22.8616 38.5672 22.9357C42.837 23.4466 46.7093 20.6608 47.6607 16.447C48.0628 14.6657 48.425 12.8709 49.6823 11.4477C51.8193 9.02898 54.5719 8.17364 57.6879 8.49121C58.8075 8.60531 59.9634 8.90701 60.9794 9.38618C63.3332 10.4963 64.2434 12.5201 64.0612 15.0609C63.8928 17.4089 62.5509 18.9141 60.4548 19.7555C59.654 20.0769 58.7616 20.1684 57.8248 20.3663ZM69.8495 14.3696C69.8495 14.3696 69.8481 14.3711 69.886 14.5018C70.0333 15.055 70.2421 15.602 70.2999 16.1645C70.3259 16.4171 70.0496 16.7009 69.9104 16.9706C69.6135 16.8044 69.2152 16.7094 69.0395 16.4578C68.6067 15.8381 68.2999 15.1311 67.8896 14.4935C67.7693 14.3066 67.4314 14.0969 67.2655 14.1455C67.0669 14.2037 66.8446 14.5126 66.811 14.7394C66.7273 15.3045 66.8053 15.8957 66.703 16.4552C66.6171 16.9248 66.4378 17.4116 66.173 17.8047C65.879 18.2412 65.3432 18.5231 65.0836 18.9718C64.1799 20.5343 63.023 21.8341 61.37 22.5714C59.2402 23.5215 57.03 24.0747 54.7688 23.0211C54.0535 22.6878 53.2504 22.2864 53.3353 21.2426C53.4142 20.2726 54.0695 19.9919 54.9042 19.7619C55.5096 19.5951 56.0382 19.1482 56.7267 18.7543C56.4079 18.5717 56.3589 18.5229 56.3057 18.5178C56.2178 18.5092 56.126 18.5221 56.0379 18.5378C54.9657 18.7277 54.7375 18.5471 54.5869 17.4259C54.5555 17.1926 54.5331 16.8714 54.3815 16.7559C53.6604 16.2068 52.921 15.6716 52.1391 15.2159C51.4933 14.8394 50.7242 14.6716 50.4547 13.8198C50.3591 13.5177 50.0996 13.2677 49.9149 12.9939C49.6303 13.2659 49.2282 13.4872 49.0852 13.8204C48.7775 14.5371 48.4996 15.2986 48.4056 16.066C48.3247 16.7266 48.1399 17.5456 49.1009 17.9045C49.5543 18.0738 49.4943 18.4259 49.1056 18.6355C48.8521 18.7722 48.5139 18.902 48.2542 18.8461C47.62 18.7095 47.302 19.0288 46.9923 19.4871C46.6736 19.9588 46.4019 20.5449 45.9516 20.8285C44.8194 21.5416 44.079 22.3769 44.1192 23.8161C44.1324 24.2881 43.8026 24.7697 43.6297 25.2469C43.0478 24.9636 42.4629 24.6862 41.8869 24.3914C41.7866 24.34 41.7411 24.1746 41.6405 24.1313C41.2278 23.9539 40.8157 23.7293 40.3811 23.6574C39.3117 23.4807 38.2174 23.4416 37.1572 23.2275C36.2548 23.0453 35.8439 22.24 35.6328 21.4519C35.4531 20.7813 35.8029 20.2452 36.5125 19.9638C36.6304 19.9171 36.6349 19.441 36.5985 19.1763C36.5388 18.7422 36.2326 18.2692 36.339 17.9027C36.4937 17.3694 36.2449 17.0903 36.0682 16.6764C35.8081 16.0673 35.5072 15.3124 35.6519 14.7259C35.9784 13.4029 38.7288 12.2642 39.9523 12.9188C40.6937 13.3154 41.1408 13.3877 41.684 12.6584C41.8678 12.4115 42.4196 12.4404 42.8033 12.3432C42.8441 12.7923 43.0121 13.2832 42.8836 13.6766C42.7882 13.9687 42.2863 14.11 42.005 14.3628C41.6943 14.6421 41.4288 14.9719 41.0624 15.3687C40.6143 15.7639 40.1636 16.1562 39.7189 16.5553C39.4063 16.836 38.9168 17.0822 38.8373 17.4218C38.719 17.927 38.8566 18.5095 38.9782 19.0376C38.9986 19.1262 39.6518 19.2283 39.7349 19.1165C40.3233 18.3247 41.0521 18.6844 41.717 18.8404C42.7099 19.0732 43.5201 18.872 44.0715 18.0502C44.188 17.8766 44.0693 17.5442 44.0245 17.1643C43.6388 16.5867 43.2183 16.0283 42.8859 15.4214C42.766 15.2025 42.7451 14.7667 42.8827 14.6114C43.0379 14.4362 43.4613 14.3522 43.6978 14.4337C44.0112 14.5417 44.24 14.8748 44.5362 15.0617C44.7742 15.2117 45.0997 15.4219 45.3095 15.3566C45.4911 15.3002 45.6908 14.8786 45.6626 14.6453C45.5731 13.9058 45.5481 13.0847 45.2004 12.4627C43.1195 8.74037 39.0738 8.48155 35.7769 9.41621C34.0183 9.91477 32.8416 11.2284 31.8238 12.6155C31.0311 13.696 29.9637 14.048 28.7894 14.4193C28.3066 13.3404 28.9288 12.5444 29.3728 11.7607C29.6856 11.2086 29.619 10.8098 29.1455 10.521C28.4496 10.0965 27.7345 9.56055 26.9685 9.43471C26.1878 9.30648 25.1125 8.39824 24.518 9.83731C24.4774 9.93565 24.1704 10.0045 24.0211 9.96352C22.8726 9.64812 22.3909 10.4851 22.0198 11.2509C21.7828 11.74 21.8311 12.404 21.9004 12.9713C21.9118 13.0652 22.689 13.069 23.113 13.1057C23.2325 13.116 23.3549 13.0988 23.4755 13.0882C25.0309 12.9513 25.0285 12.9516 25.4021 14.5319C25.4507 14.7374 25.5365 14.9345 25.6108 15.1333C25.9576 16.0614 26.1594 16.1255 26.9761 15.605C27.4291 15.3162 27.8977 15.0522 28.3593 14.777C28.441 14.7995 28.5226 14.8219 28.6042 14.8444C27.9682 15.9659 28.421 16.4004 29.4005 16.7361C29.7782 16.8656 30.1107 17.5124 30.2137 17.9791C30.3948 18.8 30.3176 19.677 30.4836 20.5032C30.5549 20.8581 30.9087 21.3218 31.2315 21.4225C31.7571 21.5866 32.2207 21.2913 32.3946 20.6859C32.4688 20.4275 32.5957 20.1843 32.7271 19.865C33.3824 20.6485 33.3748 20.7066 32.9631 21.3731C32.8511 21.5545 32.8179 21.8005 32.7995 22.0212C32.7628 22.4607 32.8364 22.9221 32.7318 23.3411C32.37 24.7906 32.353 24.7998 33.5051 25.7083C33.5527 25.7458 33.5978 25.7914 33.6519 25.8149C34.9152 26.3638 36.1341 27.1534 37.4541 27.4018C39.5785 27.8016 41.7166 27.5155 43.69 26.4765C43.9232 26.3537 44.224 26.2035 44.4513 26.2546C45.1974 26.4224 45.728 26.09 46.264 25.6585C46.8761 25.1657 47.5228 24.7164 48.1419 24.232C48.7005 23.7949 49.3317 23.6961 49.7599 24.2639C50.7939 25.6349 52.19 26.288 53.7537 26.8974C56.3975 27.9276 59.0022 27.6694 61.5469 26.9217C63.1954 26.4373 64.7447 25.5187 65.8761 24.0725C66.3539 23.4617 66.9495 23.6247 67.2897 24.3189C67.5107 24.7699 67.8254 25.174 68.0861 25.6063C68.1745 25.7529 68.3141 25.9443 68.2804 26.0768C68.0281 27.0694 68.8895 27.3479 69.4114 27.7873C69.6161 27.9596 70.1326 27.9344 70.4159 27.8023C71.0617 27.5011 71.6394 27.0567 72.2663 26.7096C73.2596 26.1597 73.3166 25.1118 72.4111 24.4254C71.6414 23.8419 70.8988 23.2171 70.1931 22.5579C70.0238 22.3998 70.0483 22.0329 69.9837 21.7621C70.2298 21.716 70.4849 21.6053 70.7201 21.638C71.1349 21.6957 71.541 21.9447 71.9445 21.9311C73.5055 21.8785 75.0708 21.8142 76.6217 21.6392C78.1656 21.4651 79.7062 21.1842 80.7976 20.1112C80.0509 19.5634 79.2849 19.0528 78.5793 18.4687C77.9178 17.921 77.2471 17.7056 76.4007 17.9707C75.4051 18.2826 74.3867 18.521 73.4401 18.7747C73.196 18.4311 73.0445 18.0282 72.7548 17.8445C71.793 17.2346 71.2779 16.4521 71.5939 15.2199C72.4197 13.7552 72.4194 13.7555 71.2751 12.6069C70.9546 12.2852 70.6283 11.969 70.3185 11.6373C69.3042 10.5511 68.5341 10.7326 67.9764 12.2954C67.5838 13.26 68.0035 13.9491 69.033 14.0849C69.3123 14.1218 69.5768 14.2721 69.8495 14.3696ZM61.5039 12.8729C61.6981 13.4752 61.8143 14.1215 62.1168 14.6629C62.2892 14.9713 62.7573 15.1264 63.1162 15.3007C63.1615 15.3227 63.4281 15.0588 63.4654 14.8978C63.839 13.2887 63.3956 12.7319 61.7694 12.726C61.679 12.7256 61.5886 12.7251 61.5302 12.5888C62.1047 10.657 62.0557 10.5669 60.2113 9.91281C59.9592 9.8234 59.7363 9.65148 59.4994 9.51844C58.1661 8.76938 57.4857 8.9522 56.7223 10.256C56.6817 10.3253 56.5837 10.3608 56.4788 10.4362C56.3012 10.3384 56.1036 10.2608 55.9424 10.1359C54.538 9.04726 52.8683 9.14774 51.6804 10.464C51.5105 10.6522 51.4681 11.159 51.5998 11.3762C51.8763 11.832 52.2718 12.2361 52.6837 12.5836C53.3591 13.1536 54.1473 13.4869 55.0226 13.0908C56.1232 12.5928 57.1552 12.6304 58.2457 13.1599C58.6167 13.34 59.1529 13.2567 59.5971 13.1872C60.2357 13.0873 60.859 12.89 61.5039 12.8729ZM83.7025 32.2861C84.7363 32.7839 85.1472 32.5669 85.2865 31.4551C85.3165 31.216 85.3353 30.9698 85.4084 30.7428C85.836 29.4141 85.3756 28.2209 84.1855 27.6132C84.584 26.2923 84.475 26.1369 83.1644 25.4097C81.0066 24.2124 78.6807 24.2906 76.3571 24.4925C75.8599 24.5357 75.4 25.034 74.9272 25.3294C74.6588 25.497 74.4194 25.7323 74.1311 25.8424C73.534 26.0703 72.6621 27.4418 72.839 28.0375C72.8956 28.228 73.1366 28.4799 73.3145 28.4983C74.3621 28.6069 75.4762 28.9009 76.4524 28.6604C77.6451 28.3666 78.6541 28.7403 79.719 28.9681C80.0961 29.0488 80.5312 29.3378 80.7311 29.6614C81.0579 30.1904 81.4532 30.3382 82.0304 30.4618C82.4782 30.5576 82.8767 31.0134 83.2298 31.3754C83.4258 31.5764 83.4838 31.913 83.7025 32.2861ZM80.2938 17.6544C80.6591 18.1363 80.9882 18.6545 81.4103 19.0798C81.5512 19.2219 82.1276 19.2173 82.1696 19.1255C82.584 18.2185 83.349 17.4189 82.9857 16.2551C82.8047 15.6755 82.6095 14.9354 82.8212 14.44C83.0754 13.8449 82.9533 13.4697 82.6912 13.0229C82.4308 12.579 82.1352 12.1554 81.885 11.7061C81.5943 11.1841 81.6458 10.7546 82.2023 10.3906C82.8745 9.9509 82.8357 9.45312 82.1479 9.01708C81.7422 8.75981 81.3154 8.53413 80.9208 8.26128C80.06 7.66612 79.1433 7.93931 78.401 9.03395C78.04 9.5664 78.358 10.2992 79.1869 10.7893C79.6861 11.0845 79.9622 11.4385 79.6784 12.0308C77.9919 11.8012 77.0288 11.3907 76.4836 10.5689C75.3947 8.92762 73.7932 8.89676 72.6075 9.27862C72.3334 9.36692 71.978 9.62922 71.9272 9.86852C71.8754 10.1125 72.0948 10.4817 72.2988 10.6982C72.6693 11.0915 73.078 11.4784 73.5403 11.7481C74.2877 12.1841 75.0564 12.6629 75.8795 12.8692C77.0203 13.1551 77.7745 13.7309 78.0264 14.8708C78.0833 15.128 78.156 15.4217 78.3225 15.6073C78.9259 16.2798 79.5724 16.9136 80.2938 17.6544ZM68.0343 31.6578C68.3981 31.3129 68.7618 30.9679 69.1498 30.6C68.446 29.9588 67.8336 30.451 67.2396 30.8318C66.5486 31.2749 66.176 31.8756 66.3726 32.756C66.4915 33.2884 66.6584 33.5344 67.2252 33.2181C67.4021 33.1194 67.7633 33.0779 67.8614 33.1812C67.9893 33.3158 67.9656 33.6212 67.9592 33.8518C67.9512 34.1366 67.7701 34.5981 67.8789 34.6743C68.4392 35.0668 69.0455 35.4244 69.6854 35.6559C69.9293 35.7441 70.2994 35.4376 70.6236 35.3595C70.8732 35.2994 71.1413 35.3194 71.4005 35.2962C71.8422 35.2567 72.384 35.3553 72.7 35.133C73.1273 34.8326 73.433 34.3 72.955 33.7158C72.8939 33.6411 72.9747 33.4494 72.9898 33.3119C73.1238 33.3272 73.3679 33.3215 73.3755 33.3611C73.4999 34.0142 73.6525 34.6724 73.6606 35.3312C73.663 35.5287 73.2435 35.7314 72.9655 35.9778C74.0938 36.4117 75.9851 36.3653 77.8996 35.9159C78.8353 35.6963 78.9021 35.4937 78.4716 34.6127C78.3492 34.3622 78.4224 34.0155 78.4058 33.7129C78.7154 33.6996 79.0531 33.6028 79.3271 33.6956C79.6249 33.7964 79.9033 34.0372 80.121 34.2795C81.1638 35.4401 81.6264 35.5195 82.8263 34.5579C83.0129 34.4084 83.1294 33.8405 83.0064 33.69C82.4771 33.043 81.8907 32.4211 81.2298 31.9154C80.9798 31.7241 80.4644 31.8167 80.0842 31.8742C79.0272 32.0342 77.9839 32.303 76.9233 32.4158C76.0018 32.5138 75.0639 32.4696 74.1335 32.4614C73.8776 32.4591 73.6138 32.3859 73.3689 32.3011C72.5471 32.0166 71.742 31.6777 70.9083 31.4368C70.6668 31.3671 70.2215 31.4624 70.0907 31.6431C69.4449 32.5352 68.8011 32.3358 68.0343 31.6578ZM76.4664 17.3269C77.4665 16.9062 77.7707 15.8293 77.5065 14.8526C77.2903 14.0531 76.4901 13.459 75.4142 13.418C74.8237 13.3955 74.2039 13.4467 73.6391 13.61C72.7521 13.8667 72.2503 14.6663 72.2913 15.5334C72.3379 16.5178 72.922 17.3641 73.8643 17.4801C74.672 17.5796 75.4663 17.7476 76.4664 17.3269ZM85.6599 8.23919C85.8741 7.7141 85.8128 7.29107 85.3986 6.83473C85.1563 6.56786 85.0669 6.08115 85.0644 5.6923C85.0591 4.88427 84.5568 4.37768 83.8172 4.69766C83.237 4.94868 82.8376 4.89804 82.3237 4.58486C81.7497 4.23501 81.2014 4.55721 80.9669 5.06856C80.855 5.31269 81.0867 5.87257 81.3355 6.09587C82.0264 6.71608 83.0939 7.07468 82.5527 8.07444C83.2584 8.31837 83.9228 8.43283 84.4556 8.76177C85.1001 9.15971 85.3864 8.96962 85.6599 8.23919ZM58.0417 18.2872C59.381 19.7645 59.6022 19.7989 61.0621 18.7583C61.1111 18.7234 61.1629 18.6926 61.2127 18.6588C61.9089 18.1867 62.1284 17.4707 61.5748 16.8455C61.051 16.2538 60.3484 15.8033 59.6676 15.3836C59.5139 15.2889 59.0969 15.5374 58.85 15.7018C58.4856 15.9446 58.205 16.3491 57.8167 16.5131C57.1684 16.7869 57.1525 17.1162 57.527 17.6084C57.6728 17.8 57.8115 17.9972 58.0417 18.2872ZM55.2292 13.582C54.6045 13.8626 54.4657 14.363 54.2524 14.8308C53.9837 15.4202 54.2562 15.9982 54.9126 16.0529C55.7973 16.1265 56.7328 16.1397 57.5763 15.9142C57.9659 15.81 58.3431 15.1131 58.4497 14.6244C58.5904 13.9795 58.0806 13.4957 57.4713 13.4265C56.7782 13.3478 55.8538 13.3013 55.2292 13.582ZM37.0253 16.1413C37.8962 16.404 38.7126 16.1372 39.5302 15.99C40.1672 15.8753 40.5548 15.3698 40.5493 14.6633C40.5436 13.9429 40.1134 13.5832 39.4755 13.3825C38.427 13.0527 37.1609 13.4603 36.5762 14.3342C36.1097 15.0314 36.1543 15.8785 37.0253 16.1413Z" fill="#5B4FF0"/>
<path d="M149.056 27.8126C147.187 27.7012 145.926 26.845 145.446 25.0837C144.295 20.8554 143.157 16.6224 142.094 12.3712C141.644 10.5692 142.421 9.1546 143.852 8.775C145.636 8.30168 147.263 9.07695 147.763 10.8998C148.732 14.4337 149.548 18.0097 150.426 21.5686C150.469 21.745 150.454 21.9508 150.541 22.0982C150.683 22.3377 150.887 22.5402 151.065 22.7583C151.241 22.5362 151.517 22.339 151.579 22.0883C152.158 19.7729 152.696 17.447 153.256 15.1267C153.603 13.6893 153.894 12.2327 154.343 10.8274C154.908 9.05975 156.249 8.36213 158.016 8.75889C159.45 9.08068 160.299 10.4788 159.903 12.085C159.279 14.6141 158.59 17.1281 157.883 19.6353C156.772 23.572 155.75 27.5404 154.459 31.4177C152.679 36.7611 147.353 37.3687 143.611 35.7744C141.178 34.7377 140.95 32.4758 141.827 30.9037C142.747 29.2548 144.533 29.0932 146.168 30.3984C147.258 31.2679 148.361 31.2101 149.061 30.1507C149.401 29.6352 149.594 29.0053 149.772 28.4029C149.922 27.8927 149.559 27.7832 149.056 27.8126Z" fill="#5B4FF0"/>
<path d="M9.42185 22.3837C9.38699 23.4434 9.42434 24.4223 9.29974 25.3799C9.08191 27.0541 7.9611 27.953 6.30114 27.9086C4.64331 27.8643 3.47801 26.9221 3.40915 25.2637C3.28473 22.267 3.31851 19.2636 3.28814 16.263C3.28568 16.0204 3.30064 15.7777 3.30275 15.535C3.31466 14.1654 3.31417 14.1654 1.98467 13.9664C0.857644 13.7977 0.117385 12.9446 0.01305 11.6943C-0.0980709 10.3626 0.506378 9.26878 1.59985 8.93757C2.08458 8.79076 2.60584 8.7653 3.25729 8.66132C3.29837 8.03695 3.33974 7.35972 3.38801 6.68298C3.59271 3.81361 4.8049 1.55993 7.60726 0.589644C10.2454 -0.323776 12.9164 -0.252311 15.3431 1.34554C16.7135 2.24787 17.1285 3.91427 16.4874 5.3649C15.6721 7.20944 13.489 7.69833 11.9662 6.37545C11.8063 6.23658 11.6656 6.07525 11.5035 5.93932C10.7883 5.33957 9.90034 5.52819 9.62636 6.42158C9.44453 7.01452 9.43324 7.67462 9.44568 8.30266C9.44874 8.45736 9.82948 8.70554 10.0587 8.73445C10.5951 8.80212 11.1478 8.72762 11.6886 8.77366C13.2353 8.90534 14.0949 9.94593 14.024 11.5564C13.9564 13.0927 13.0989 13.9305 11.5491 13.9743C9.40378 14.0349 9.40983 14.0349 9.41874 16.1946C9.42713 18.2274 9.42093 20.2603 9.42185 22.3837Z" fill="#5B4FF0"/>
<path d="M132.35 28.0233C126.77 27.9303 122.934 23.9792 122.889 18.4616C122.865 15.5699 123.622 13.006 125.727 10.9727C127.282 9.47109 129.218 8.71734 131.354 8.56763C133.77 8.39828 136.158 8.58735 138.214 10.0352C139.088 10.6505 139.92 11.4132 140.547 12.2732C141.451 13.5127 141.187 15.1676 140.164 15.9706C139.017 16.8711 137.423 16.7245 136.366 15.4512C135.069 13.8899 133.556 13.1154 131.523 13.6049C129.636 14.0592 128.366 15.7131 128.222 17.8988C128.071 20.179 129.096 21.9341 131.035 22.7134C132.865 23.4492 134.932 22.9044 136.184 21.3469C136.877 20.4849 137.695 19.873 138.87 20.0004C140.899 20.2202 141.777 22.4325 140.557 24.3144C139.566 25.8424 138.173 26.9437 136.444 27.4321C135.155 27.7961 133.777 27.8381 132.35 28.0233Z" fill="#5B4FF0"/>
<path d="M40.785 15.554C41.0702 15.2461 41.6943 14.6421 42.005 14.3628C42.2863 14.11 42.7882 13.9687 42.8836 13.6766C43.0121 13.2832 42.8441 12.7923 42.8033 12.3432C42.4196 12.4404 41.8678 12.4115 41.684 12.6584C41.1408 13.3877 40.6937 13.3154 39.9523 12.9188C38.7288 12.2642 35.9784 13.4029 35.6519 14.7259C35.5072 15.3124 35.8081 16.0673 36.0682 16.6764C36.2449 17.0903 36.4937 17.3694 36.339 17.9027C36.2326 18.2692 36.5388 18.7422 36.5985 19.1763C36.6349 19.441 36.6304 19.9171 36.5125 19.9638C35.8029 20.2452 35.4531 20.7813 35.6328 21.4519C35.8439 22.24 36.2548 23.0453 37.1572 23.2275C38.2174 23.4416 39.3117 23.4807 40.3811 23.6574C40.8157 23.7293 41.2278 23.9539 41.6405 24.1313C41.7411 24.1746 41.7866 24.34 41.8869 24.3914C42.4629 24.6862 43.0478 24.9636 43.6297 25.2469C43.8026 24.7697 44.1324 24.2881 44.1192 23.8161C44.079 22.3769 44.8194 21.5416 45.9516 20.8285C46.4019 20.5449 46.6736 19.9588 46.9923 19.4871C47.302 19.0288 47.62 18.7095 48.2542 18.8461C48.5139 18.902 48.8521 18.7722 49.1056 18.6355C49.4943 18.4259 49.5543 18.0738 49.1009 17.9045C48.1399 17.5456 48.3247 16.7266 48.4056 16.066C48.4996 15.2986 48.7775 14.5371 49.0852 13.8204C49.2282 13.4872 49.6303 13.2659 49.9149 12.9939C50.0996 13.2677 50.3591 13.5177 50.4547 13.8198C50.7242 14.6716 51.4933 14.8394 52.1391 15.2159C52.921 15.6716 53.6604 16.2068 54.3815 16.7559C54.5331 16.8714 54.5555 17.1926 54.5869 17.4259C54.7375 18.5471 54.9657 18.7277 56.0379 18.5378C56.126 18.5221 56.2178 18.5092 56.3057 18.5178C56.3589 18.5229 56.4079 18.5717 56.7267 18.7543C56.0382 19.1482 55.5096 19.5951 54.9042 19.7619C54.0695 19.9919 53.4142 20.2726 53.3353 21.2426C53.2504 22.2864 54.0535 22.6878 54.7688 23.0211C57.03 24.0747 59.2402 23.5215 61.37 22.5714C63.023 21.8341 64.1799 20.5343 65.0836 18.9718C65.3432 18.5231 65.879 18.2412 66.173 17.8047C66.4378 17.4116 66.6171 16.9248 66.703 16.4552C66.8053 15.8957 66.7273 15.3045 66.811 14.7394C66.8446 14.5126 67.0669 14.2037 67.2655 14.1455C67.4314 14.0969 67.7693 14.3066 67.8896 14.4935C68.2999 15.1311 68.6067 15.8381 69.0395 16.4578C69.2152 16.7094 69.6135 16.8044 69.9104 16.9706C70.0496 16.7009 70.3259 16.4171 70.2999 16.1645C70.2421 15.602 69.3177 14.5175 69.2139 13.914C69.762 14.1575 71.7973 13.2557 72.302 13.5495C72.093 14.719 71.793 17.2346 72.7548 17.8445C73.0445 18.0282 73.196 18.4311 73.4401 18.7747C74.3867 18.521 75.4051 18.2826 76.4007 17.9707C77.2471 17.7056 77.9178 17.921 78.5793 18.4687C79.2849 19.0528 80.0509 19.5634 80.7976 20.1112C79.7062 21.1842 78.1656 21.4651 76.6217 21.6392C75.0708 21.8142 73.5055 21.8785 71.9445 21.9311C71.541 21.9447 71.1349 21.6957 70.7201 21.638C70.4849 21.6053 70.2298 21.716 69.9837 21.7621C70.0483 22.0329 70.0238 22.3998 70.1931 22.5579C70.8988 23.2171 71.6414 23.8419 72.4111 24.4254C73.3166 25.1118 73.2596 26.1597 72.2663 26.7096C71.6394 27.0567 71.0617 27.5011 70.4159 27.8023C70.1326 27.9344 69.6161 27.9596 69.4114 27.7873C68.8895 27.3479 68.0281 27.0694 68.2804 26.0768C68.3141 25.9443 68.1745 25.7529 68.0861 25.6063C67.8254 25.174 67.5107 24.7699 67.2897 24.3189C66.9495 23.6247 66.3539 23.4617 65.8761 24.0725C64.7447 25.5187 63.1954 26.4373 61.5469 26.9217C59.0022 27.6694 56.3975 27.9276 53.7537 26.8974C52.19 26.288 50.7939 25.6349 49.7599 24.2639C49.3317 23.6961 48.7005 23.7949 48.1419 24.232C47.5228 24.7164 46.8761 25.1657 46.264 25.6585C45.728 26.09 45.1974 26.4224 44.4513 26.2546C44.224 26.2035 43.9232 26.3537 43.69 26.4765C41.7166 27.5155 39.5785 27.8016 37.4541 27.4018C36.1341 27.1534 34.9152 26.3638 33.6519 25.8149C33.5978 25.7914 33.5527 25.7458 33.5051 25.7083C32.353 24.7998 32.37 24.7906 32.7318 23.3411C32.8364 22.9221 32.7628 22.4607 32.7995 22.0212C32.8179 21.8005 32.8511 21.5545 32.9631 21.3731C33.3748 20.7066 33.3824 20.6485 32.7271 19.865C32.5957 20.1843 32.4688 20.4275 32.3946 20.6859C32.2207 21.2913 31.7571 21.5866 31.2315 21.4225C30.9087 21.3218 30.5549 20.8581 30.4836 20.5032C30.3176 19.677 30.3948 18.8 30.2137 17.9791C30.1107 17.5124 29.7782 16.8656 29.4005 16.7361C28.421 16.4004 27.9682 15.9659 28.6042 14.8444C28.5226 14.8219 28.441 14.7995 28.3593 14.777C27.8977 15.0522 27.4291 15.3162 26.9761 15.605C26.1594 16.1255 25.9576 16.0614 25.6108 15.1333C25.5365 14.9345 25.4507 14.7374 25.4021 14.5319C25.0285 12.9516 25.0309 12.9513 23.4755 13.0882C23.3549 13.0988 23.2325 13.116 23.113 13.1057C22.689 13.069 21.9118 13.0652 21.9004 12.9713C21.8311 12.404 21.7828 11.74 22.0198 11.2509C22.3909 10.4851 22.8726 9.64812 24.0211 9.96352C24.1704 10.0045 24.4774 9.93565 24.518 9.83731C25.1125 8.39824 26.1878 9.30648 26.9685 9.43471C27.7345 9.56055 28.4496 10.0965 29.1455 10.521C29.619 10.8098 29.6856 11.2086 29.3728 11.7607C28.9288 12.5444 28.3066 13.3404 28.7894 14.4193C29.9637 14.048 31.0311 13.696 31.8238 12.6155C32.8416 11.2284 34.0183 9.91477 35.7769 9.41621C39.0738 8.48155 43.1195 8.74037 45.2004 12.4627C45.5481 13.0847 45.5731 13.9058 45.6626 14.6453C45.6908 14.8786 45.4911 15.3002 45.3095 15.3566C45.0997 15.4219 44.7742 15.2117 44.5362 15.0617C44.24 14.8748 44.0112 14.5417 43.6978 14.4337C43.4613 14.3522 43.0379 14.4362 42.8827 14.6114C42.7451 14.7667 42.766 15.2025 42.8859 15.4214C43.8731 15.8574 44.0753 17.2836 44.4181 17.9045C43.9181 17.4872 42.9681 16.3722 42.583 15.8573C42.1929 15.3359 41.431 15.3339 40.785 15.554Z" fill="#5B4FF0"/>
<path d="M83.6533 32.2373C83.4838 31.913 83.4258 31.5764 83.2298 31.3754C82.8767 31.0134 82.4782 30.5576 82.0304 30.4618C81.4532 30.3382 81.0579 30.1904 80.7311 29.6614C80.5312 29.3378 80.0961 29.0488 79.719 28.9681C78.6541 28.7403 77.6451 28.3666 76.4524 28.6604C75.4762 28.9009 74.3621 28.6069 73.3145 28.4983C73.1366 28.4799 72.8956 28.228 72.839 28.0375C72.6621 27.4418 73.534 26.0703 74.1311 25.8424C74.4194 25.7323 74.6588 25.497 74.9272 25.3294C75.4 25.034 75.8599 24.5357 76.3571 24.4925C78.6807 24.2906 81.0066 24.2124 83.1644 25.4097C84.475 26.1369 84.584 26.2923 84.1855 27.6132C85.3756 28.2209 85.836 29.4141 85.4084 30.7428C85.3353 30.9698 85.3165 31.216 85.2865 31.4551C85.1472 32.5669 84.7363 32.7839 83.6533 32.2373Z" fill="#5B4FF0"/>
<path d="M80.2482 17.6082C79.5724 16.9136 78.9259 16.2798 78.3225 15.6073C78.156 15.4217 78.0833 15.128 78.0264 14.8708C77.7745 13.7309 77.0203 13.1551 75.8795 12.8692C75.0564 12.6629 74.2877 12.1841 73.5403 11.7481C73.078 11.4784 72.6693 11.0915 72.2988 10.6982C72.0948 10.4817 71.8754 10.1125 71.9272 9.86852C71.978 9.62922 72.3334 9.36692 72.6075 9.27862C73.7932 8.89676 75.3947 8.92762 76.4836 10.5689C77.0288 11.3907 77.9919 11.8012 79.6784 12.0308C79.9622 11.4385 79.6861 11.0845 79.1869 10.7893C78.358 10.2992 78.04 9.5664 78.401 9.03395C79.1433 7.93931 80.06 7.66612 80.9208 8.26128C81.3154 8.53413 81.7422 8.75981 82.1479 9.01708C82.8357 9.45312 82.8745 9.9509 82.2023 10.3906C81.6458 10.7546 81.5943 11.1841 81.885 11.7061C82.1352 12.1554 82.4308 12.579 82.6912 13.0229C82.9533 13.4697 83.0754 13.8449 82.8212 14.44C82.6095 14.9354 82.8047 15.6755 82.9857 16.2551C83.349 17.4189 82.584 18.2185 82.1696 19.1255C82.1276 19.2173 81.5512 19.2219 81.4103 19.0798C80.9882 18.6545 80.6591 18.1363 80.2482 17.6082Z" fill="#5B4FF0"/>
<path d="M68.0712 31.7047C68.8011 32.3358 69.4449 32.5352 70.0907 31.6431C70.2215 31.4624 70.6668 31.3671 70.9083 31.4368C71.742 31.6777 72.5471 32.0166 73.3689 32.3011C73.6138 32.3859 73.8776 32.4591 74.1335 32.4614C75.0639 32.4696 76.0018 32.5138 76.9233 32.4158C77.9839 32.303 79.0272 32.0342 80.0842 31.8742C80.4644 31.8167 80.9798 31.7241 81.2298 31.9154C81.8907 32.4211 82.4771 33.043 83.0064 33.69C83.1294 33.8405 83.0129 34.4084 82.8263 34.5579C81.6264 35.5195 81.1638 35.4401 80.121 34.2795C79.9033 34.0372 79.6249 33.7964 79.3271 33.6956C79.0531 33.6028 78.7154 33.6996 78.4058 33.7129C78.4224 34.0155 78.3492 34.3622 78.4716 34.6127C78.9021 35.4937 78.8353 35.6963 77.8996 35.9159C75.9851 36.3653 74.0938 36.4117 72.9655 35.9778C73.2435 35.7314 73.663 35.5287 73.6606 35.3312C73.6525 34.6724 73.4999 34.0142 73.3755 33.3611C73.3679 33.3215 73.1238 33.3272 72.9898 33.3119C72.9747 33.4494 72.8939 33.6411 72.955 33.7158C73.433 34.3 73.1273 34.8326 72.7 35.133C72.384 35.3553 71.8422 35.2567 71.4005 35.2962C71.1413 35.3194 70.8732 35.2994 70.6236 35.3595C70.2994 35.4376 69.9293 35.7441 69.6854 35.6559C69.0455 35.4244 68.4392 35.0668 67.8789 34.6743C67.7701 34.5981 67.9512 34.1366 67.9592 33.8518C67.9656 33.6212 67.9893 33.3158 67.8614 33.1812C67.7633 33.0779 67.4021 33.1194 67.2252 33.2181C66.6584 33.5344 66.4915 33.2884 66.3726 32.756C66.176 31.8756 66.5486 31.2749 67.2396 30.8318C67.8336 30.451 68.446 29.9588 69.1498 30.6C68.7618 30.9679 68.3981 31.3129 68.0712 31.7047Z" fill="#5B4FF0"/>
<path d="M61.4889 12.7342C60.859 12.89 60.2357 13.0873 59.5971 13.1872C59.1529 13.2567 58.6167 13.34 58.2457 13.1599C57.1552 12.6304 56.1232 12.5928 55.0226 13.0908C54.1473 13.4869 53.3591 13.1536 52.6837 12.5836C52.2718 12.2361 51.8763 11.832 51.5998 11.3762C51.4681 11.159 51.5105 10.6522 51.6804 10.464C52.8683 9.14774 54.538 9.04726 55.9424 10.1359C56.1036 10.2608 56.3012 10.3384 56.4788 10.4362C56.5837 10.3608 56.6817 10.3253 56.7223 10.256C57.4857 8.9522 58.1661 8.76938 59.4994 9.51844C59.7363 9.65148 59.9592 9.8234 60.2113 9.91281C62.0557 10.5669 62.1047 10.657 61.5119 12.6591C61.4936 12.7294 61.4889 12.7342 61.4889 12.7342Z" fill="#5B4FF0"/>
<path d="M41.103 15.3242C41.7896 15.0597 42.1929 15.3359 42.583 15.8573C42.9681 16.3722 43.4815 16.7904 43.9988 17.268C44.0693 17.5442 44.188 17.8766 44.0715 18.0502C43.5201 18.872 42.7099 19.0732 41.717 18.8404C41.0521 18.6844 40.3233 18.3247 39.7349 19.1165C39.6518 19.2283 38.9986 19.1262 38.9782 19.0376C38.8566 18.5095 38.719 17.927 38.8373 17.4218C38.9168 17.0822 39.4063 16.836 39.7189 16.5553C40.1636 16.1562 40.6143 15.7639 41.103 15.3242Z" fill="#5B4FF0"/>
<path d="M85.637 8.30368C85.3864 8.96961 85.1001 9.15971 84.4556 8.76177C83.9228 8.43283 83.2584 8.31837 82.5527 8.07444C83.0939 7.07468 82.0264 6.71608 81.3355 6.09587C81.0867 5.87257 80.855 5.31269 80.9669 5.06856C81.2014 4.55721 81.7497 4.23501 82.3237 4.58486C82.8376 4.89804 83.237 4.94868 83.8172 4.69766C84.5568 4.37768 85.0591 4.88427 85.0644 5.6923C85.0669 6.08115 85.1563 6.56786 85.3986 6.83473C85.8128 7.29107 85.8741 7.7141 85.637 8.30368Z" fill="#5B4FF0"/>
<path d="M57.9975 18.2395C57.8115 17.9972 57.6728 17.8 57.527 17.6084C57.1525 17.1162 57.1684 16.7869 57.8167 16.5131C58.205 16.3491 58.4856 15.9446 58.85 15.7018C59.0969 15.5374 59.5139 15.2889 59.6676 15.3836C60.3484 15.8033 61.051 16.2538 61.5748 16.8455C62.1284 17.4707 61.9089 18.1867 61.2127 18.6588C61.1629 18.6926 61.1111 18.7234 61.0621 18.7583C59.6022 19.7989 59.381 19.7645 57.9975 18.2395Z" fill="#5B4FF0"/>
<path d="M71.5404 15.2513C70.9823 14.9889 70.4776 14.6951 69.9105 14.3862C69.8482 14.3711 69.8495 14.3696 69.8501 14.2957C69.792 13.7541 69.8999 13.1073 69.6359 12.8605C69.2374 12.4879 68.399 12.2127 67.8514 12.0006C68.3536 10.5508 69.3042 10.5511 70.3185 11.6373C70.6283 11.969 70.9546 12.2852 71.2751 12.6069C72.4194 13.7555 72.4197 13.7552 71.5404 15.2513Z" fill="#5B4FF0"/>
<path d="M61.4959 12.7271C61.5886 12.7252 61.3123 10.2692 61.4027 10.2695C63.0289 10.2754 64.0469 13.216 63.6734 14.8251C63.636 14.9861 63.1615 15.3227 63.1162 15.3007C62.7573 15.1264 62.2892 14.9713 62.1168 14.6629C61.8143 14.1215 59.8787 13.3988 59.677 12.7271C59.6695 12.6578 61.1302 12.7348 61.4959 12.7271Z" fill="#5B4FF0"/>
<path d="M67.8453 12.0006C68.4703 12.1798 69.1849 12.2874 69.6178 12.7165C69.9045 13.0006 69.7873 13.7456 69.8495 14.3696C69.5534 14.342 69.2662 14.1688 68.9628 14.1264C67.8446 13.97 67.3886 13.1765 67.8453 12.0006Z" fill="#5B4FF0"/>
</svg>
